<?xml version="1.0" encoding="utf-8"?>
<!-- Generator: Adobe Illustrator 27.4.1, SVG Export Plug-In . SVG Version: 6.00 Build 0)  -->
<svg version="1.1" id="Layer_1" xmlns="http://www.w3.org/2000/svg" xmlns:xlink="http://www.w3.org/1999/xlink" x="0px" y="0px"
	 viewBox="0 0 400 225" style="enable-background:new 0 0 400 225;" xml:space="preserve">
<style type="text/css">
	.st0{fill:none;}
	.st1{fill:#FFFFFF;}
	.st2{fill:#FAC361;}
	.st3{fill:#97BAF6;}
	.st4{fill:#F0F1F5;}
	.st5{fill:#3C5F84;}
	.st6{fill:none;stroke:#97BAF6;stroke-width:4;stroke-miterlimit:10;}
</style>
<g id="Layer_2_00000165951933143465833470000009958591940091630505_">
	<g id="interactive_video">
		<polyline class="st0" points="400,225 0,225 0,0 400,0 		"/>
		<g>
			<g>
				<rect x="104.9" y="43.7" class="st1" width="43.4" height="36.6"/>
				<circle class="st2" cx="116.1" cy="54.8" r="5.1"/>
				<path class="st3" d="M148.4,50.9v29.8h-43.6V47.8c0-1.5,1.3-2.8,2.8-2.8h38c1.5,0,2.8,1.3,2.8,2.8L148.4,50.9L148.4,50.9z
					 M146.4,40.2h-39.6c-3.2,0-5.7,2.5-5.7,5.7v45.5c0,3.2,2.5,5.7,5.7,5.7h39.6c3.2,0,5.7-2.5,5.7-5.7V45.8
					C152,42.7,149.5,40.2,146.4,40.2z"/>
			</g>
			<path class="st4" d="M141.4,87.1h-29.8c-0.6,0-1.1-0.5-1.1-1.1v-0.8c0-0.6,0.5-1.1,1.1-1.1h29.8c0.6,0,1.1,0.5,1.1,1.1V86
				C142.5,86.6,142,87.1,141.4,87.1z"/>
			<path class="st4" d="M134.5,89.8h-15.8c-0.6,0-1.1,0.5-1.1,1.1v0.8c0,0.6,0.5,1.1,1.1,1.1h15.8c0.6,0,1.1-0.5,1.1-1.1v-0.8
				C135.4,90.2,135,89.8,134.5,89.8z"/>
		</g>
		<g>
			<g>
				<rect x="185.7" y="121.6" class="st1" width="43.4" height="36.6"/>
				
					<ellipse transform="matrix(0.1602 -0.9871 0.9871 0.1602 34.3794 305.8297)" class="st2" cx="196.9" cy="132.7" rx="5.1" ry="5.1"/>
				<path class="st3" d="M229.2,130.9v27.7h-43.6v-32.9c0-1.5,1.3-2.8,2.8-2.8h38c1.5,0,2.8,1.3,2.8,2.8L229.2,130.9L229.2,130.9z
					 M227.2,118.1h-39.6c-3.2,0-5.7,2.5-5.7,5.7v45.5c0,3.2,2.5,5.7,5.7,5.7h39.6c3.2,0,5.7-2.5,5.7-5.7v-45.5
					C232.8,120.7,230.3,118.1,227.2,118.1z"/>
			</g>
			<path class="st4" d="M222.2,165h-29.8c-0.6,0-1.1-0.5-1.1-1.1v-0.8c0-0.6,0.5-1.1,1.1-1.1h29.8c0.6,0,1.1,0.5,1.1,1.1v0.8
				C223.3,164.5,222.8,165,222.2,165z"/>
			<path class="st4" d="M215.2,167.7h-15.8c-0.6,0-1.1,0.5-1.1,1.1v0.8c0,0.6,0.5,1.1,1.1,1.1h15.8c0.6,0,1.1-0.5,1.1-1.1v-0.8
				C216.3,168.1,215.8,167.7,215.2,167.7z"/>
		</g>
		<g>
			<g>
				<rect x="104.9" y="121.6" class="st1" width="43.4" height="36.6"/>
				<circle class="st2" cx="116.1" cy="132.7" r="5.1"/>
				<path class="st3" d="M148.4,130.9v27.7h-43.6v-32.9c0-1.5,1.3-2.8,2.8-2.8h38c1.5,0,2.8,1.3,2.8,2.8L148.4,130.9L148.4,130.9z
					 M146.4,118.1h-39.6c-3.2,0-5.7,2.5-5.7,5.7v45.5c0,3.2,2.5,5.7,5.7,5.7h39.6c3.2,0,5.7-2.5,5.7-5.7v-45.5
					C152,120.7,149.5,118.1,146.4,118.1z"/>
			</g>
			<path class="st4" d="M141.4,165h-29.8c-0.6,0-1.1-0.5-1.1-1.1v-0.8c0-0.6,0.5-1.1,1.1-1.1h29.8c0.6,0,1.1,0.5,1.1,1.1v0.8
				C142.5,164.5,142,165,141.4,165z"/>
			<path class="st4" d="M134.5,167.7h-15.8c-0.6,0-1.1,0.5-1.1,1.1v0.8c0,0.6,0.5,1.1,1.1,1.1h15.8c0.6,0,1.1-0.5,1.1-1.1v-0.8
				C135.4,168.1,135,167.7,134.5,167.7z"/>
		</g>
		<path class="st5" d="M145.8,146.6l2.5,1.9v10h-43.6v-4.2l8.1-5.9c1-0.7,2.6-0.7,3.6,0l3.2,2.3l3.9-2.8l10.2-7.4
			c1-0.7,2.6-0.7,3.6,0L145.8,146.6z"/>
		<path class="st5" d="M226.6,146.6l2.5,1.9v10h-43.6v-4.2l8.1-5.9c1-0.7,2.6-0.7,3.6,0l3.2,2.3l3.9-2.8l10.2-7.4
			c1-0.7,2.6-0.7,3.6,0L226.6,146.6z"/>
		<g>
			<g>
				<rect x="186" y="43.7" class="st1" width="43.4" height="36.6"/>
				<circle class="st2" cx="197.3" cy="54.8" r="5.1"/>
				<path class="st3" d="M229.5,53v27.6h-43.6V47.8c0-1.5,1.3-2.8,2.8-2.8h38c1.5,0,2.8,1.3,2.8,2.8L229.5,53L229.5,53z M227.5,40.2
					h-39.6c-3.2,0-5.7,2.5-5.7,5.7v45.5c0,3.2,2.5,5.7,5.7,5.7h39.6c3.2,0,5.7-2.5,5.7-5.7V45.8C233.2,42.7,230.7,40.2,227.5,40.2z"
					/>
			</g>
			<path class="st4" d="M222.6,87.1h-29.8c-0.6,0-1.1-0.5-1.1-1.1v-0.8c0-0.6,0.5-1.1,1.1-1.1h29.8c0.6,0,1.1,0.5,1.1,1.1V86
				C223.6,86.6,223.2,87.1,222.6,87.1z"/>
			<path class="st4" d="M215.6,89.8h-15.8c-0.6,0-1.1,0.5-1.1,1.1v0.8c0,0.6,0.5,1.1,1.1,1.1h15.8c0.6,0,1.1-0.5,1.1-1.1v-0.8
				C216.6,90.2,216.1,89.8,215.6,89.8z"/>
		</g>
		<path class="st5" d="M227,68.7l2.5,1.9v10h-43.6v-4.2l8.1-5.9c1-0.7,2.6-0.7,3.6,0l3.2,2.3l3.9-2.8l10.2-7.4c1-0.7,2.6-0.7,3.6,0
			L227,68.7z"/>
		<path class="st5" d="M145.8,69.4l2.5,1.9v10h-43.6v-4.2l8.1-5.9c1-0.7,2.6-0.7,3.6,0l3.2,2.3l3.9-2.8l10.2-7.4
			c1-0.7,2.6-0.7,3.6,0L145.8,69.4z"/>
	</g>
</g>
<g>
	<line class="st3" x1="152" y1="66.7" x2="181.9" y2="66.7"/>
	<g>
		<line class="st6" x1="152" y1="66.7" x2="173.3" y2="66.7"/>
		<g>
			<polygon class="st3" points="171.5,72.7 181.9,66.7 171.5,60.7 			"/>
		</g>
	</g>
</g>
<g>
	<line class="st3" x1="150.1" y1="94.6" x2="182.7" y2="119.3"/>
	<g>
		<line class="st6" x1="150.1" y1="94.6" x2="175.8" y2="114.1"/>
		<g>
			<polygon class="st3" points="170.8,117.8 182.7,119.3 178.1,108.2 			"/>
		</g>
	</g>
</g>
<g>
	<line class="st3" x1="126.6" y1="97" x2="126.6" y2="118.1"/>
	<g>
		<line class="st6" x1="126.6" y1="97" x2="126.6" y2="109.5"/>
		<g>
			<polygon class="st3" points="120.6,107.8 126.6,118.1 132.6,107.8 			"/>
		</g>
	</g>
</g>
<g>
	<line class="st3" x1="152" y1="145.4" x2="181.2" y2="145.4"/>
	<g>
		<line class="st6" x1="152" y1="145.4" x2="172.6" y2="145.4"/>
		<g>
			<polygon class="st3" points="170.8,151.4 181.2,145.4 170.8,139.4 			"/>
		</g>
	</g>
</g>
<g>
	<line class="st3" x1="207.7" y1="118.1" x2="207.8" y2="97"/>
	<g>
		<line class="st6" x1="207.7" y1="118.1" x2="207.8" y2="105.6"/>
		<g>
			<polygon class="st3" points="213.7,107.4 207.8,97 201.8,107.4 			"/>
		</g>
	</g>
</g>
<g>
	<g>
		<rect x="265.1" y="43.7" class="st1" width="43.4" height="36.6"/>
		<circle class="st2" cx="276.3" cy="54.8" r="5.1"/>
		<path class="st3" d="M308.6,50.9v29.8H265V47.8c0-1.5,1.3-2.8,2.8-2.8h38c1.5,0,2.8,1.3,2.8,2.8L308.6,50.9L308.6,50.9z
			 M306.6,40.2h-39.6c-3.2,0-5.7,2.5-5.7,5.7v45.5c0,3.2,2.5,5.7,5.7,5.7h39.6c3.2,0,5.7-2.5,5.7-5.7V45.8
			C312.2,42.7,309.7,40.2,306.6,40.2z"/>
	</g>
	<path class="st4" d="M301.6,87.1h-29.8c-0.6,0-1.1-0.5-1.1-1.1v-0.8c0-0.6,0.5-1.1,1.1-1.1h29.8c0.6,0,1.1,0.5,1.1,1.1V86
		C302.7,86.6,302.2,87.1,301.6,87.1z"/>
	<path class="st4" d="M294.7,89.8h-15.8c-0.6,0-1.1,0.5-1.1,1.1v0.8c0,0.6,0.5,1.1,1.1,1.1h15.8c0.6,0,1.1-0.5,1.1-1.1v-0.8
		C295.6,90.2,295.2,89.8,294.7,89.8z"/>
</g>
<g>
	<g>
		<rect x="265.1" y="121.6" class="st1" width="43.4" height="36.6"/>
		<circle class="st2" cx="276.3" cy="132.7" r="5.1"/>
		<path class="st3" d="M308.6,130.9v27.7H265v-32.9c0-1.5,1.3-2.8,2.8-2.8h38c1.5,0,2.8,1.3,2.8,2.8L308.6,130.9L308.6,130.9z
			 M306.6,118.1h-39.6c-3.2,0-5.7,2.5-5.7,5.7v45.5c0,3.2,2.5,5.7,5.7,5.7h39.6c3.2,0,5.7-2.5,5.7-5.7v-45.5
			C312.2,120.7,309.7,118.1,306.6,118.1z"/>
	</g>
	<path class="st4" d="M301.6,165h-29.8c-0.6,0-1.1-0.5-1.1-1.1v-0.8c0-0.6,0.5-1.1,1.1-1.1h29.8c0.6,0,1.1,0.5,1.1,1.1v0.8
		C302.7,164.5,302.2,165,301.6,165z"/>
	<path class="st4" d="M294.7,167.7h-15.8c-0.6,0-1.1,0.5-1.1,1.1v0.8c0,0.6,0.5,1.1,1.1,1.1h15.8c0.6,0,1.1-0.5,1.1-1.1v-0.8
		C295.6,168.1,295.2,167.7,294.7,167.7z"/>
</g>
<path class="st5" d="M306,146.6l2.5,1.9v10h-43.6v-4.2l8.1-5.9c1-0.7,2.6-0.7,3.6,0l3.2,2.3l3.9-2.8l10.2-7.4c1-0.7,2.6-0.7,3.6,0
	L306,146.6z"/>
<path class="st5" d="M306,69.4l2.5,1.9v10h-43.6v-4.2l8.1-5.9c1-0.7,2.6-0.7,3.6,0l3.2,2.3l3.9-2.8l10.2-7.4c1-0.7,2.6-0.7,3.6,0
	L306,69.4z"/>
<g>
	<line class="st3" x1="286.8" y1="97" x2="286.8" y2="118.1"/>
	<g>
		<line class="st6" x1="286.8" y1="97" x2="286.8" y2="109.5"/>
		<g>
			<polygon class="st3" points="280.8,107.8 286.8,118.1 292.8,107.8 			"/>
		</g>
	</g>
</g>
<g>
	<line class="st3" x1="232.8" y1="66.7" x2="262" y2="66.7"/>
	<g>
		<line class="st6" x1="232.8" y1="66.7" x2="253.4" y2="66.7"/>
		<g>
			<polygon class="st3" points="251.6,72.7 262,66.7 251.6,60.7 			"/>
		</g>
	</g>
</g>
</svg>
